<?xml version="1.0" encoding="UTF-8" standalone="yes"?><svg xmlns="http://www.w3.org/2000/svg" xmlns:xlink="http://www.w3.org/1999/xlink" height="520.3125pt" style="width:951px;height:520px;" version="1.1" viewBox="0 0 951 520" width="951.5625pt"><defs><filter height="300%" id="f1" width="300%" x="-1" y="-1"><feGaussianBlur result="blurOut" stdDeviation="3.125"/><feColorMatrix in="blurOut" result="blurOut2" type="matrix" values="0 0 0 0 0 0 0 0 0 0 0 0 0 0 0 0 0 0 .4 0"/><feOffset dx="6.25" dy="6.25" in="blurOut2" result="blurOut3"/><feBlend in="SourceGraphic" in2="blurOut3" mode="normal"/></filter></defs><g><polygon fill="#FFFFFF" filter="url(#f1)" points="46.875,275,381.25,275,392.1875,309.8389,917.1875,309.8389,917.1875,509.375,46.875,509.375,46.875,275" style="stroke: #000000; stroke-width: 3.125;"/><line style="stroke: #000000; stroke-width: 3.125;" x1="46.875" x2="392.1875" y1="309.8389" y2="309.8389"/><text fill="#000000" font-family="sans-serif" font-size="21.875" font-weight="bold" lengthAdjust="spacingAndGlyphs" textLength="325" x="53.125" y="298.4299">Unternehmensnetzwerk A</text><rect fill="#F8F8F8" filter="url(#f1)" height="56.7139" style="stroke: #383838; stroke-width: 2.34375;" width="195.3125" x="84.375" y="415.625"/><rect fill="#F8F8F8" height="7.8125" style="stroke: #383838; stroke-width: 2.34375;" width="15.625" x="76.5625" y="423.4375"/><rect fill="#F8F8F8" height="7.8125" style="stroke: #383838; stroke-width: 2.34375;" width="15.625" x="76.5625" y="456.7139"/><text fill="#000000" font-family="sans-serif" font-size="21.875" lengthAdjust="spacingAndGlyphs" textLength="164.0625" x="100" y="451.5549">Marktrechner 1</text><rect fill="#F8F8F8" filter="url(#f1)" height="56.7139" style="stroke: #383838; stroke-width: 2.34375;" width="195.3125" x="332.8125" y="415.625"/><rect fill="#F8F8F8" height="7.8125" style="stroke: #383838; stroke-width: 2.34375;" width="15.625" x="325" y="423.4375"/><rect fill="#F8F8F8" height="7.8125" style="stroke: #383838; stroke-width: 2.34375;" width="15.625" x="325" y="456.7139"/><text fill="#000000" font-family="sans-serif" font-size="21.875" lengthAdjust="spacingAndGlyphs" textLength="164.0625" x="348.4375" y="451.5549">Marktrechner 2</text><rect fill="#F8F8F8" filter="url(#f1)" height="56.7139" style="stroke: #383838; stroke-width: 2.34375;" width="50" x="581.25" y="415.625"/><rect fill="#F8F8F8" height="7.8125" style="stroke: #383838; stroke-width: 2.34375;" width="15.625" x="573.4375" y="423.4375"/><rect fill="#F8F8F8" height="7.8125" style="stroke: #383838; stroke-width: 2.34375;" width="15.625" x="573.4375" y="456.7139"/><text fill="#000000" font-family="sans-serif" font-size="21.875" lengthAdjust="spacingAndGlyphs" textLength="18.75" x="596.875" y="451.5549">...</text><rect fill="#F8F8F8" filter="url(#f1)" height="56.7139" style="stroke: #383838; stroke-width: 2.34375;" width="195.3125" x="685.9375" y="415.625"/><rect fill="#F8F8F8" height="7.8125" style="stroke: #383838; stroke-width: 2.34375;" width="15.625" x="678.125" y="423.4375"/><rect fill="#F8F8F8" height="7.8125" style="stroke: #383838; stroke-width: 2.34375;" width="15.625" x="678.125" y="456.7139"/><text fill="#000000" font-family="sans-serif" font-size="21.875" lengthAdjust="spacingAndGlyphs" textLength="164.0625" x="701.5625" y="451.5549">Marktrechner n</text><polygon fill="#FFFFFF" filter="url(#f1)" points="93.75,163.2813,176.5625,163.2813,187.5,178.9063,425,178.9063,425,224.6826,93.75,224.6826,93.75,163.2813" style="stroke: #000000; stroke-width: 2.34375;"/><line style="stroke: #000000; stroke-width: 2.34375;" x1="93.75" x2="187.5" y1="178.9063" y2="178.9063"/><text fill="#000000" font-family="sans-serif" font-size="21.875" lengthAdjust="spacingAndGlyphs" textLength="284.375" x="109.375" y="203.8986">Unternehmensnetzwerk B</text><polygon fill="#FFFFFF" filter="url(#f1)" points="609.375,163.2813,692.1875,163.2813,703.125,178.9063,940.625,178.9063,940.625,224.6826,609.375,224.6826,609.375,163.2813" style="stroke: #000000; stroke-width: 2.34375;"/><line style="stroke: #000000; stroke-width: 2.34375;" x1="609.375" x2="703.125" y1="178.9063" y2="178.9063"/><text fill="#000000" font-family="sans-serif" font-size="21.875" lengthAdjust="spacingAndGlyphs" textLength="284.375" x="625" y="203.8986">Unternehmensnetzwerk C</text><path d="M484.375,176.5625 C484.375,171.875 487.5,168.75 492.1875,168.75 C496.875,168.75 500,171.875 500,176.5625 C500,171.875 503.125,168.75 507.8125,168.75 C512.5,168.75 515.625,171.875 515.625,176.5625 C515.625,171.875 518.75,168.75 523.4375,168.75 C528.125,168.75 531.25,171.875 531.25,176.5625 C531.25,171.875 534.375,168.75 539.0625,168.75 C543.75,168.75 546.875,171.875 546.875,176.5625 C551.5625,176.5625 554.6875,179.6875 554.6875,184.375 C554.6875,189.0625 551.5625,192.1875 546.875,192.1875 C551.5625,192.1875 554.6875,195.3125 554.6875,200 C554.6875,204.6875 551.5625,207.8125 546.875,207.8125 C546.875,212.5 542.1875,215.625 539.0625,215.625 C534.375,215.625 531.25,212.5 531.25,207.8125 C531.25,212.5 526.5625,215.625 523.4375,215.625 C518.75,215.625 515.625,212.5 515.625,207.8125 C515.625,212.5 510.9375,215.625 507.8125,215.625 C503.125,215.625 500,212.5 500,207.8125 C500,212.5 495.3125,215.625 492.1875,215.625 C487.5,215.625 484.375,212.5 484.375,207.8125 C479.6875,207.8125 476.5625,204.6875 476.5625,200 C476.5625,195.3125 479.6875,192.1875 484.375,192.1875 C479.6875,192.1875 476.5625,189.0625 476.5625,184.375 C476.5625,179.6875 479.6875,176.5625 484.375,176.5625 " fill="#FFFFFF" filter="url(#f1)" style="stroke: #383838; stroke-width: 2.34375;"/><text fill="#000000" font-family="sans-serif" font-size="21.875" lengthAdjust="spacingAndGlyphs" textLength="43.75" x="495.3125" y="201.5549">VPN</text><rect fill="#F8F8F8" filter="url(#f1)" height="56.7139" style="stroke: #383838; stroke-width: 2.34375;" width="254.6875" x="390.625" y="12.5"/><rect fill="#F8F8F8" height="7.8125" style="stroke: #383838; stroke-width: 2.34375;" width="15.625" x="382.8125" y="20.3125"/><rect fill="#F8F8F8" height="7.8125" style="stroke: #383838; stroke-width: 2.34375;" width="15.625" x="382.8125" y="53.5889"/><text fill="#000000" font-family="sans-serif" font-size="21.875" lengthAdjust="spacingAndGlyphs" textLength="223.4375" x="406.25" y="48.4299">Fernservice-Zentrale</text><path d="M517.1875,69.4266 C517.1875,96.9766 517.1875,138.2625 517.1875,165.5953 " fill="none" style="stroke: #383838; stroke-width: 1.5625;"/><path d="M517.1875,222.4688 C517.1875,238.0578 517.1875,257.6844 517.1875,275.2594 " fill="none" style="stroke: #383838; stroke-width: 1.5625;"/><path d="M425.0391,193.75 C443.0375,193.75 461.0344,193.75 479.0328,193.75 " fill="none" style="stroke: #383838; stroke-width: 1.5625;"/><path d="M554.9531,193.75 C573.0031,193.75 591.0547,193.75 609.1047,193.75 " fill="none" style="stroke: #383838; stroke-width: 1.5625;"/><path d="M517.95,320.6672 C528.5391,325.5875 647.0938,380.6813 721.9563,415.4697 " fill="none" style="stroke: #383838; stroke-width: 1.5625;"/><path d="M517.7562,321.1 C522.8531,328.1641 561.0484,381.1016 585.5656,415.0819 " fill="none" style="stroke: #383838; stroke-width: 1.5625;"/><path d="M516.6281,321.1 C511.6219,328.1641 474.0969,381.1016 450.0094,415.0819 " fill="none" style="stroke: #383838; stroke-width: 1.5625;"/><path d="M516.4219,320.5422 C506.1344,323.6234 394.3406,357.2844 306.25,390.625 C286.1813,398.2203 264.5859,407.1288 245.0844,415.4567 " fill="none" style="stroke: #383838; stroke-width: 1.5625;"/></g></svg>