<?xml version="1.0" encoding="UTF-8" standalone="yes"?><svg xmlns="http://www.w3.org/2000/svg" xmlns:xlink="http://www.w3.org/1999/xlink" height="520.3125pt" style="width:956px;height:520px;" version="1.1" viewBox="0 0 956 520" width="956.25pt"><defs><filter height="300%" id="f1" width="300%" x="-1" y="-1"><feGaussianBlur result="blurOut" stdDeviation="3.125"/><feColorMatrix in="blurOut" result="blurOut2" type="matrix" values="0 0 0 0 0 0 0 0 0 0 0 0 0 0 0 0 0 0 .4 0"/><feOffset dx="6.25" dy="6.25" in="blurOut2" result="blurOut3"/><feBlend in="SourceGraphic" in2="blurOut3" mode="normal"/></filter></defs><g><polygon fill="#FFFFFF" filter="url(#f1)" points="46.875,275,381.25,275,392.1875,309.8389,925,309.8389,925,509.375,46.875,509.375,46.875,275" style="stroke: #000000; stroke-width: 3.125;"/><line style="stroke: #000000; stroke-width: 3.125;" x1="46.875" x2="392.1875" y1="309.8389" y2="309.8389"/><text fill="#000000" font-family="sans-serif" font-size="21.875" font-weight="bold" lengthAdjust="spacingAndGlyphs" textLength="325" x="53.125" y="298.4299">Unternehmensnetzwerk A</text><rect fill="#F8F8F8" filter="url(#f1)" height="56.7139" style="stroke: #383838; stroke-width: 2.34375;" width="195.3125" x="85.5469" y="415.625"/><rect fill="#F8F8F8" height="7.8125" style="stroke: #383838; stroke-width: 2.34375;" width="15.625" x="77.7344" y="423.4375"/><rect fill="#F8F8F8" height="7.8125" style="stroke: #383838; stroke-width: 2.34375;" width="15.625" x="77.7344" y="456.7139"/><text fill="#000000" font-family="sans-serif" font-size="21.875" lengthAdjust="spacingAndGlyphs" textLength="164.0625" x="101.1719" y="451.5549">Marktrechner 1</text><rect fill="#F8F8F8" filter="url(#f1)" height="56.7139" style="stroke: #383838; stroke-width: 2.34375;" width="195.3125" x="335.5469" y="415.625"/><rect fill="#F8F8F8" height="7.8125" style="stroke: #383838; stroke-width: 2.34375;" width="15.625" x="327.7344" y="423.4375"/><rect fill="#F8F8F8" height="7.8125" style="stroke: #383838; stroke-width: 2.34375;" width="15.625" x="327.7344" y="456.7139"/><text fill="#000000" font-family="sans-serif" font-size="21.875" lengthAdjust="spacingAndGlyphs" textLength="164.0625" x="351.1719" y="451.5549">Marktrechner 2</text><rect fill="#F8F8F8" filter="url(#f1)" height="56.7139" style="stroke: #383838; stroke-width: 2.34375;" width="50" x="585.9375" y="415.625"/><rect fill="#F8F8F8" height="7.8125" style="stroke: #383838; stroke-width: 2.34375;" width="15.625" x="578.125" y="423.4375"/><rect fill="#F8F8F8" height="7.8125" style="stroke: #383838; stroke-width: 2.34375;" width="15.625" x="578.125" y="456.7139"/><text fill="#000000" font-family="sans-serif" font-size="21.875" lengthAdjust="spacingAndGlyphs" textLength="18.75" x="601.5625" y="451.5549">...</text><rect fill="#F8F8F8" filter="url(#f1)" height="56.7139" style="stroke: #383838; stroke-width: 2.34375;" width="195.3125" x="691.7969" y="415.625"/><rect fill="#F8F8F8" height="7.8125" style="stroke: #383838; stroke-width: 2.34375;" width="15.625" x="683.9844" y="423.4375"/><rect fill="#F8F8F8" height="7.8125" style="stroke: #383838; stroke-width: 2.34375;" width="15.625" x="683.9844" y="456.7139"/><text fill="#000000" font-family="sans-serif" font-size="21.875" lengthAdjust="spacingAndGlyphs" textLength="164.0625" x="707.4219" y="451.5549">Marktrechner n</text><polygon fill="#FFFFFF" filter="url(#f1)" points="99.2188,163.2813,182.0313,163.2813,192.9688,178.9063,430.4688,178.9063,430.4688,224.6826,99.2188,224.6826,99.2188,163.2813" style="stroke: #000000; stroke-width: 2.34375;"/><line style="stroke: #000000; stroke-width: 2.34375;" x1="99.2188" x2="192.9688" y1="178.9063" y2="178.9063"/><text fill="#000000" font-family="sans-serif" font-size="21.875" lengthAdjust="spacingAndGlyphs" textLength="284.375" x="114.8438" y="203.8986">Unternehmensnetzwerk B</text><polygon fill="#FFFFFF" filter="url(#f1)" points="614.8438,163.2813,697.6563,163.2813,708.5938,178.9063,946.0938,178.9063,946.0938,224.6826,614.8438,224.6826,614.8438,163.2813" style="stroke: #000000; stroke-width: 2.34375;"/><line style="stroke: #000000; stroke-width: 2.34375;" x1="614.8438" x2="708.5938" y1="178.9063" y2="178.9063"/><text fill="#000000" font-family="sans-serif" font-size="21.875" lengthAdjust="spacingAndGlyphs" textLength="284.375" x="630.4688" y="203.8986">Unternehmensnetzwerk C</text><path d="M489.0625,176.5625 C489.0625,171.875 492.1875,168.75 496.875,168.75 C501.5625,168.75 504.6875,171.875 504.6875,176.5625 C504.6875,171.875 507.8125,168.75 512.5,168.75 C517.1875,168.75 520.3125,171.875 520.3125,176.5625 C520.3125,171.875 523.4375,168.75 528.125,168.75 C532.8125,168.75 535.9375,171.875 535.9375,176.5625 C535.9375,171.875 539.0625,168.75 543.75,168.75 C548.4375,168.75 551.5625,171.875 551.5625,176.5625 C556.25,176.5625 559.375,179.6875 559.375,184.375 C559.375,189.0625 556.25,192.1875 551.5625,192.1875 C556.25,192.1875 559.375,195.3125 559.375,200 C559.375,204.6875 556.25,207.8125 551.5625,207.8125 C551.5625,212.5 546.875,215.625 543.75,215.625 C539.0625,215.625 535.9375,212.5 535.9375,207.8125 C535.9375,212.5 531.25,215.625 528.125,215.625 C523.4375,215.625 520.3125,212.5 520.3125,207.8125 C520.3125,212.5 515.625,215.625 512.5,215.625 C507.8125,215.625 504.6875,212.5 504.6875,207.8125 C504.6875,212.5 500,215.625 496.875,215.625 C492.1875,215.625 489.0625,212.5 489.0625,207.8125 C484.375,207.8125 481.25,204.6875 481.25,200 C481.25,195.3125 484.375,192.1875 489.0625,192.1875 C484.375,192.1875 481.25,189.0625 481.25,184.375 C481.25,179.6875 484.375,176.5625 489.0625,176.5625 " fill="#FFFFFF" filter="url(#f1)" style="stroke: #383838; stroke-width: 2.34375;"/><text fill="#000000" font-family="sans-serif" font-size="21.875" lengthAdjust="spacingAndGlyphs" textLength="43.75" x="500" y="201.5549">VPN</text><rect fill="#F8F8F8" filter="url(#f1)" height="56.7139" style="stroke: #383838; stroke-width: 2.34375;" width="254.6875" x="394.9219" y="12.5"/><rect fill="#F8F8F8" height="7.8125" style="stroke: #383838; stroke-width: 2.34375;" width="15.625" x="387.1094" y="20.3125"/><rect fill="#F8F8F8" height="7.8125" style="stroke: #383838; stroke-width: 2.34375;" width="15.625" x="387.1094" y="53.5889"/><text fill="#000000" font-family="sans-serif" font-size="21.875" lengthAdjust="spacingAndGlyphs" textLength="223.4375" x="410.5469" y="48.4299">Fernservice-Zentrale</text><path d="M521.875,69.0047 C521.875,96.3078 521.875,138.3844 521.875,165.6031 " fill="none" style="stroke: #383838; stroke-width: 1.5625;"/><path d="M521.875,222.0969 C521.875,237.7578 521.875,257.8938 521.875,275.7297 " fill="none" style="stroke: #383838; stroke-width: 1.5625;"/><path d="M429.2234,193.75 C447.5609,193.75 465.8984,193.75 484.2359,193.75 " fill="none" style="stroke: #383838; stroke-width: 1.5625;"/><path d="M559.6406,193.75 C577.9781,193.75 596.3156,193.75 614.6516,193.75 " fill="none" style="stroke: #383838; stroke-width: 1.5625;"/><path d="M522.0688,321.9625 C527.6469,324.4734 652.4469,380.6703 729.4219,415.332 " fill="none" style="stroke: #383838; stroke-width: 1.5625;"/><path d="M521.9391,321.9625 C523.7938,324.4672 565.1641,380.3531 590.8391,415.037 " fill="none" style="stroke: #383838; stroke-width: 1.5625;"/><path d="M521.8109,321.9625 C519.9563,324.4672 478.5859,380.3531 452.9109,415.037 " fill="none" style="stroke: #383838; stroke-width: 1.5625;"/><path d="M521.7875,321.9 C518.125,322.95 400.1797,356.8047 307.8125,390.625 C287.0906,398.2123 264.7344,407.1797 244.7359,415.4906 " fill="none" style="stroke: #383838; stroke-width: 1.5625;"/></g></svg>