<?xml version="1.0" encoding="UTF-8"?><svg xmlns="http://www.w3.org/2000/svg" xmlns:xlink="http://www.w3.org/1999/xlink" fill-opacity="1" color-rendering="auto" color-interpolation="auto" stroke="black" text-rendering="auto" stroke-linecap="square" width="631" stroke-miterlimit="10" stroke-opacity="1" shape-rendering="auto" fill="black" stroke-dasharray="none" font-weight="normal" stroke-width="1" height="903" font-family="'Dialog'" font-style="normal" stroke-linejoin="miter" font-size="12" stroke-dashoffset="0" image-rendering="auto">
  <!--Generated by ySVG 2.5-->
  <defs id="genericDefs"/>
  <g>
    <defs id="defs1">
      <linearGradient x1="174.3333" gradientUnits="userSpaceOnUse" x2="441" y1="75" y2="75" id="linearGradient1" spreadMethod="reflect">
        <stop stop-opacity="1" stop-color="gray" offset="0%"/>
        <stop stop-opacity="1" stop-color="gray" offset="100%"/>
      </linearGradient>
      <linearGradient x1="174.3333" gradientUnits="userSpaceOnUse" x2="441" y1="105" y2="105" id="linearGradient2" spreadMethod="reflect">
        <stop stop-opacity="1" stop-color="white" offset="0%"/>
        <stop stop-opacity="1" stop-color="white" offset="100%"/>
      </linearGradient>
      <linearGradient x1="173.3333" gradientUnits="userSpaceOnUse" x2="440" y1="147" y2="147" id="linearGradient3" spreadMethod="reflect">
        <stop stop-opacity="1" stop-color="gray" offset="0%"/>
        <stop stop-opacity="1" stop-color="gray" offset="100%"/>
      </linearGradient>
      <linearGradient x1="173.3333" gradientUnits="userSpaceOnUse" x2="440" y1="177" y2="177" id="linearGradient4" spreadMethod="reflect">
        <stop stop-opacity="1" stop-color="white" offset="0%"/>
        <stop stop-opacity="1" stop-color="white" offset="100%"/>
      </linearGradient>
      <linearGradient x1="173.3333" gradientUnits="userSpaceOnUse" x2="440" y1="219.0409" y2="219.0409" id="linearGradient5" spreadMethod="reflect">
        <stop stop-opacity="1" stop-color="gray" offset="0%"/>
        <stop stop-opacity="1" stop-color="gray" offset="100%"/>
      </linearGradient>
      <linearGradient x1="173.3333" gradientUnits="userSpaceOnUse" x2="440" y1="249.0409" y2="249.0409" id="linearGradient6" spreadMethod="reflect">
        <stop stop-opacity="1" stop-color="white" offset="0%"/>
        <stop stop-opacity="1" stop-color="white" offset="100%"/>
      </linearGradient>
      <linearGradient x1="173.3333" gradientUnits="userSpaceOnUse" x2="440" y1="306.9437" y2="306.9437" id="linearGradient7" spreadMethod="reflect">
        <stop stop-opacity="1" stop-color="gray" offset="0%"/>
        <stop stop-opacity="1" stop-color="gray" offset="100%"/>
      </linearGradient>
      <linearGradient x1="173.3333" gradientUnits="userSpaceOnUse" x2="440" y1="336.9437" y2="336.9437" id="linearGradient8" spreadMethod="reflect">
        <stop stop-opacity="1" stop-color="white" offset="0%"/>
        <stop stop-opacity="1" stop-color="white" offset="100%"/>
      </linearGradient>
      <linearGradient x1="233.3333" gradientUnits="userSpaceOnUse" x2="440" y1="378.8383" y2="378.8383" id="linearGradient9" spreadMethod="reflect">
        <stop stop-opacity="1" stop-color="gray" offset="0%"/>
        <stop stop-opacity="1" stop-color="gray" offset="100%"/>
      </linearGradient>
      <linearGradient x1="233.3333" gradientUnits="userSpaceOnUse" x2="440" y1="408.8383" y2="408.8383" id="linearGradient10" spreadMethod="reflect">
        <stop stop-opacity="1" stop-color="white" offset="0%"/>
        <stop stop-opacity="1" stop-color="white" offset="100%"/>
      </linearGradient>
      <linearGradient x1="173.3333" gradientUnits="userSpaceOnUse" x2="440" y1="450.9017" y2="450.9017" id="linearGradient11" spreadMethod="reflect">
        <stop stop-opacity="1" stop-color="gray" offset="0%"/>
        <stop stop-opacity="1" stop-color="gray" offset="100%"/>
      </linearGradient>
      <linearGradient x1="173.3333" gradientUnits="userSpaceOnUse" x2="440" y1="481.8466" y2="481.8466" id="linearGradient12" spreadMethod="reflect">
        <stop stop-opacity="1" stop-color="white" offset="0%"/>
        <stop stop-opacity="1" stop-color="white" offset="100%"/>
      </linearGradient>
      <linearGradient x1="173.3333" gradientUnits="userSpaceOnUse" x2="440" y1="523.8132" y2="523.8132" id="linearGradient13" spreadMethod="reflect">
        <stop stop-opacity="1" stop-color="gray" offset="0%"/>
        <stop stop-opacity="1" stop-color="gray" offset="100%"/>
      </linearGradient>
      <linearGradient x1="173.3333" gradientUnits="userSpaceOnUse" x2="440" y1="554.7581" y2="554.7581" id="linearGradient14" spreadMethod="reflect">
        <stop stop-opacity="1" stop-color="white" offset="0%"/>
        <stop stop-opacity="1" stop-color="white" offset="100%"/>
      </linearGradient>
      <linearGradient x1="173.3333" gradientUnits="userSpaceOnUse" x2="440" y1="596.7442" y2="596.7442" id="linearGradient15" spreadMethod="reflect">
        <stop stop-opacity="1" stop-color="gray" offset="0%"/>
        <stop stop-opacity="1" stop-color="gray" offset="100%"/>
      </linearGradient>
      <linearGradient x1="173.3333" gradientUnits="userSpaceOnUse" x2="440" y1="626.7442" y2="626.7442" id="linearGradient16" spreadMethod="reflect">
        <stop stop-opacity="1" stop-color="white" offset="0%"/>
        <stop stop-opacity="1" stop-color="white" offset="100%"/>
      </linearGradient>
      <clipPath clipPathUnits="userSpaceOnUse" id="clipPath1">
        <path d="M0 0 L631 0 L631 903 L0 903 L0 0 Z"/>
      </clipPath>
      <clipPath clipPathUnits="userSpaceOnUse" id="clipPath2">
        <path d="M30 65 L450.6667 65 L450.6667 667 L30 667 L30 65 Z"/>
      </clipPath>
    </defs>
    <g fill="white" text-rendering="geometricPrecision" shape-rendering="geometricPrecision" transform="scale(1.5,1.5) translate(-30,-65)" stroke="white">
      <rect x="30" width="421" height="602" y="65" clip-path="url(#clipPath2)" stroke="none"/>
    </g>
    <g fill="url(#linearGradient1)" text-rendering="geometricPrecision" shape-rendering="geometricPrecision" transform="matrix(1.5,0,0,1.5,-45,-97.5)" stroke="url(#linearGradient1)">
      <rect x="41" width="400" height="30" y="75" clip-path="url(#clipPath2)" stroke="none"/>
    </g>
    <g font-size="13" stroke-linecap="butt" transform="matrix(1.5,0,0,1.5,-45,-97.5)" fill="white" text-rendering="geometricPrecision" font-family="sans-serif" shape-rendering="geometricPrecision" stroke="white" font-weight="bold" stroke-miterlimit="1.45">
      <text x="172.7183" xml:space="preserve" y="94.5005" clip-path="url(#clipPath2)" stroke="none">1. Strukturanalyse</text>
    </g>
    <g stroke-linecap="butt" transform="matrix(1.5,0,0,1.5,-45,-97.5)" fill="gray" text-rendering="geometricPrecision" shape-rendering="geometricPrecision" stroke="gray" stroke-miterlimit="1.45">
      <rect fill="none" x="41" width="400" height="30" y="75" clip-path="url(#clipPath2)"/>
    </g>
    <g fill="url(#linearGradient2)" text-rendering="geometricPrecision" shape-rendering="geometricPrecision" transform="matrix(1.5,0,0,1.5,-45,-97.5)" stroke="url(#linearGradient2)">
      <rect x="41" width="400" height="30" y="105" clip-path="url(#clipPath2)" stroke="none"/>
    </g>
    <g text-rendering="geometricPrecision" stroke-miterlimit="1.45" shape-rendering="geometricPrecision" font-family="sans-serif" transform="matrix(1.5,0,0,1.5,-45,-97.5)" stroke-linecap="butt">
      <text x="49.3428" xml:space="preserve" y="124.1543" clip-path="url(#clipPath2)" stroke="none">Komponenten des Infromationsverbunds systematisch erfassen</text>
      <rect x="41" y="105" clip-path="url(#clipPath2)" fill="none" width="400" height="30" stroke="gray"/>
    </g>
    <g fill="url(#linearGradient3)" text-rendering="geometricPrecision" shape-rendering="geometricPrecision" transform="matrix(1.5,0,0,1.5,-45,-97.5)" stroke="url(#linearGradient3)">
      <rect x="40" width="400" height="30" y="147" clip-path="url(#clipPath2)" stroke="none"/>
    </g>
    <g font-size="13" stroke-linecap="butt" transform="matrix(1.5,0,0,1.5,-45,-97.5)" fill="white" text-rendering="geometricPrecision" font-family="sans-serif" shape-rendering="geometricPrecision" stroke="white" font-weight="bold" stroke-miterlimit="1.45">
      <text x="134.1021" xml:space="preserve" y="166.5005" clip-path="url(#clipPath2)" stroke="none">2. Schutzbedarfsfeststellung</text>
    </g>
    <g stroke-linecap="butt" transform="matrix(1.5,0,0,1.5,-45,-97.5)" fill="gray" text-rendering="geometricPrecision" shape-rendering="geometricPrecision" stroke="gray" stroke-miterlimit="1.45">
      <rect fill="none" x="40" width="400" height="30" y="147" clip-path="url(#clipPath2)"/>
    </g>
    <g fill="url(#linearGradient4)" text-rendering="geometricPrecision" shape-rendering="geometricPrecision" transform="matrix(1.5,0,0,1.5,-45,-97.5)" stroke="url(#linearGradient4)">
      <rect x="40" width="400" height="30" y="177" clip-path="url(#clipPath2)" stroke="none"/>
    </g>
    <g text-rendering="geometricPrecision" stroke-miterlimit="1.45" shape-rendering="geometricPrecision" font-family="sans-serif" transform="matrix(1.5,0,0,1.5,-45,-97.5)" stroke-linecap="butt">
      <text x="54.334" xml:space="preserve" y="196.1543" clip-path="url(#clipPath2)" stroke="none">Bedarf an Vertraulichkeit, Verügbarkeit, Integrität bestimmen</text>
      <rect x="40" y="177" clip-path="url(#clipPath2)" fill="none" width="400" height="30" stroke="gray"/>
    </g>
    <g fill="url(#linearGradient5)" text-rendering="geometricPrecision" shape-rendering="geometricPrecision" transform="matrix(1.5,0,0,1.5,-45,-97.5)" stroke="url(#linearGradient5)">
      <rect x="40" width="400" height="30" y="219.0409" clip-path="url(#clipPath2)" stroke="none"/>
    </g>
    <g font-size="13" stroke-linecap="butt" transform="matrix(1.5,0,0,1.5,-45,-97.5)" fill="white" text-rendering="geometricPrecision" font-family="sans-serif" shape-rendering="geometricPrecision" stroke="white" font-weight="bold" stroke-miterlimit="1.45">
      <text x="78.9377" xml:space="preserve" y="238.5414" clip-path="url(#clipPath2)" stroke="none">3. Auswahl von Anpassung von Maßnahmen</text>
    </g>
    <g stroke-linecap="butt" transform="matrix(1.5,0,0,1.5,-45,-97.5)" fill="gray" text-rendering="geometricPrecision" shape-rendering="geometricPrecision" stroke="gray" stroke-miterlimit="1.45">
      <rect fill="none" x="40" width="400" height="30" y="219.0409" clip-path="url(#clipPath2)"/>
    </g>
    <g fill="url(#linearGradient6)" text-rendering="geometricPrecision" shape-rendering="geometricPrecision" transform="matrix(1.5,0,0,1.5,-45,-97.5)" stroke="url(#linearGradient6)">
      <rect x="40" width="400" height="46" y="249.0409" clip-path="url(#clipPath2)" stroke="none"/>
    </g>
    <g text-rendering="geometricPrecision" stroke-miterlimit="1.45" shape-rendering="geometricPrecision" font-family="sans-serif" transform="matrix(1.5,0,0,1.5,-45,-97.5)" stroke-linecap="butt">
      <text x="52.79" xml:space="preserve" y="269.2108" clip-path="url(#clipPath2)" stroke="none">Modellierung: passende IT-Grundschutz-Bausteine auswählen,</text>
      <text x="112.9863" xml:space="preserve" y="283.1795" clip-path="url(#clipPath2)" stroke="none">Basis-Sicherheitscheck I: Soll-Ist-Vergleich</text>
      <rect x="40" y="249.0409" clip-path="url(#clipPath2)" fill="none" width="400" height="46" stroke="gray"/>
    </g>
    <g fill="url(#linearGradient7)" text-rendering="geometricPrecision" shape-rendering="geometricPrecision" transform="matrix(1.5,0,0,1.5,-45,-97.5)" stroke="url(#linearGradient7)">
      <rect x="40" width="400" height="30" y="306.9437" clip-path="url(#clipPath2)" stroke="none"/>
    </g>
    <g font-size="13" stroke-linecap="butt" transform="matrix(1.5,0,0,1.5,-45,-97.5)" fill="white" text-rendering="geometricPrecision" font-family="sans-serif" shape-rendering="geometricPrecision" stroke="white" font-weight="bold" stroke-miterlimit="1.45">
      <text x="115.9033" xml:space="preserve" y="326.4442" clip-path="url(#clipPath2)" stroke="none">4. Ergänzende Sicherheitsanalyse</text>
    </g>
    <g stroke-linecap="butt" transform="matrix(1.5,0,0,1.5,-45,-97.5)" fill="gray" text-rendering="geometricPrecision" shape-rendering="geometricPrecision" stroke="gray" stroke-miterlimit="1.45">
      <rect fill="none" x="40" width="400" height="30" y="306.9437" clip-path="url(#clipPath2)"/>
    </g>
    <g fill="url(#linearGradient8)" text-rendering="geometricPrecision" shape-rendering="geometricPrecision" transform="matrix(1.5,0,0,1.5,-45,-97.5)" stroke="url(#linearGradient8)">
      <rect x="40" width="400" height="30" y="336.9437" clip-path="url(#clipPath2)" stroke="none"/>
    </g>
    <g text-rendering="geometricPrecision" stroke-miterlimit="1.45" shape-rendering="geometricPrecision" font-family="sans-serif" transform="matrix(1.5,0,0,1.5,-45,-97.5)" stroke-linecap="butt">
      <text x="101.6309" xml:space="preserve" y="356.098" clip-path="url(#clipPath2)" stroke="none">Prüfen, ob zusätzlicher Anaylsebedarf besteht</text>
      <rect x="40" y="336.9437" clip-path="url(#clipPath2)" fill="none" width="400" height="30" stroke="gray"/>
    </g>
    <g fill="url(#linearGradient9)" text-rendering="geometricPrecision" shape-rendering="geometricPrecision" transform="matrix(1.5,0,0,1.5,-45,-97.5)" stroke="url(#linearGradient9)">
      <rect x="130" width="310" height="30" y="378.8383" clip-path="url(#clipPath2)" stroke="none"/>
    </g>
    <g font-size="13" stroke-linecap="butt" transform="matrix(1.5,0,0,1.5,-45,-97.5)" fill="white" text-rendering="geometricPrecision" font-family="sans-serif" shape-rendering="geometricPrecision" stroke="white" font-weight="bold" stroke-miterlimit="1.45">
      <text x="225.4844" xml:space="preserve" y="398.3388" clip-path="url(#clipPath2)" stroke="none">5. Risikoanalyse</text>
    </g>
    <g stroke-linecap="butt" transform="matrix(1.5,0,0,1.5,-45,-97.5)" fill="gray" text-rendering="geometricPrecision" shape-rendering="geometricPrecision" stroke="gray" stroke-miterlimit="1.45">
      <rect fill="none" x="130" width="310" height="30" y="378.8383" clip-path="url(#clipPath2)"/>
    </g>
    <g fill="url(#linearGradient10)" text-rendering="geometricPrecision" shape-rendering="geometricPrecision" transform="matrix(1.5,0,0,1.5,-45,-97.5)" stroke="url(#linearGradient10)">
      <rect x="130" width="310" height="30" y="408.8383" clip-path="url(#clipPath2)" stroke="none"/>
    </g>
    <g text-rendering="geometricPrecision" stroke-miterlimit="1.45" shape-rendering="geometricPrecision" font-family="sans-serif" transform="matrix(1.5,0,0,1.5,-45,-97.5)" stroke-linecap="butt">
      <text x="143.0508" xml:space="preserve" y="427.9926" clip-path="url(#clipPath2)" stroke="none">Risiken identifizieren, bewerten und behandeln</text>
      <rect x="130" y="408.8383" clip-path="url(#clipPath2)" fill="none" width="310" height="30" stroke="gray"/>
    </g>
    <g fill="url(#linearGradient11)" text-rendering="geometricPrecision" shape-rendering="geometricPrecision" transform="matrix(1.5,0,0,1.5,-45,-97.5)" stroke="url(#linearGradient11)">
      <rect x="40" width="400" height="30" y="450.9017" clip-path="url(#clipPath2)" stroke="none"/>
    </g>
    <g font-size="13" stroke-linecap="butt" transform="matrix(1.5,0,0,1.5,-45,-97.5)" fill="white" text-rendering="geometricPrecision" font-family="sans-serif" shape-rendering="geometricPrecision" stroke="white" font-weight="bold" stroke-miterlimit="1.45">
      <text x="113.6499" xml:space="preserve" y="470.4022" clip-path="url(#clipPath2)" stroke="none">6. Konsilodierung der Maßnahmen</text>
    </g>
    <g stroke-linecap="butt" transform="matrix(1.5,0,0,1.5,-45,-97.5)" fill="gray" text-rendering="geometricPrecision" shape-rendering="geometricPrecision" stroke="gray" stroke-miterlimit="1.45">
      <rect fill="none" x="40" width="400" height="30" y="450.9017" clip-path="url(#clipPath2)"/>
    </g>
    <g fill="url(#linearGradient12)" text-rendering="geometricPrecision" shape-rendering="geometricPrecision" transform="matrix(1.5,0,0,1.5,-45,-97.5)" stroke="url(#linearGradient12)">
      <rect x="40" width="400" height="30" y="481.8466" clip-path="url(#clipPath2)" stroke="none"/>
    </g>
    <g text-rendering="geometricPrecision" stroke-miterlimit="1.45" shape-rendering="geometricPrecision" font-family="sans-serif" transform="matrix(1.5,0,0,1.5,-45,-97.5)" stroke-linecap="butt">
      <text x="70.0957" xml:space="preserve" y="501.0009" clip-path="url(#clipPath2)" stroke="none">Fehlende und zusätzliche Maßnahmen zusammenführen</text>
      <rect x="40" y="481.8466" clip-path="url(#clipPath2)" fill="none" width="400" height="30" stroke="gray"/>
    </g>
    <g fill="url(#linearGradient13)" text-rendering="geometricPrecision" shape-rendering="geometricPrecision" transform="matrix(1.5,0,0,1.5,-45,-97.5)" stroke="url(#linearGradient13)">
      <rect x="40" width="400" height="30" y="523.8132" clip-path="url(#clipPath2)" stroke="none"/>
    </g>
    <g font-size="13" stroke-linecap="butt" transform="matrix(1.5,0,0,1.5,-45,-97.5)" fill="white" text-rendering="geometricPrecision" font-family="sans-serif" shape-rendering="geometricPrecision" stroke="white" font-weight="bold" stroke-miterlimit="1.45">
      <text x="139.3325" xml:space="preserve" y="543.3137" clip-path="url(#clipPath2)" stroke="none">7. Basis-Sicherheitscheck II</text>
    </g>
    <g stroke-linecap="butt" transform="matrix(1.5,0,0,1.5,-45,-97.5)" fill="gray" text-rendering="geometricPrecision" shape-rendering="geometricPrecision" stroke="gray" stroke-miterlimit="1.45">
      <rect fill="none" x="40" width="400" height="30" y="523.8132" clip-path="url(#clipPath2)"/>
    </g>
    <g fill="url(#linearGradient14)" text-rendering="geometricPrecision" shape-rendering="geometricPrecision" transform="matrix(1.5,0,0,1.5,-45,-97.5)" stroke="url(#linearGradient14)">
      <rect x="40" width="400" height="30" y="554.7581" clip-path="url(#clipPath2)" stroke="none"/>
    </g>
    <g text-rendering="geometricPrecision" stroke-miterlimit="1.45" shape-rendering="geometricPrecision" font-family="sans-serif" transform="matrix(1.5,0,0,1.5,-45,-97.5)" stroke-linecap="butt">
      <text x="77.2295" xml:space="preserve" y="573.9124" clip-path="url(#clipPath2)" stroke="none">Umsetzung neuer und geänderter Maßnahmen prüfen</text>
      <rect x="40" y="554.7581" clip-path="url(#clipPath2)" fill="none" width="400" height="30" stroke="gray"/>
    </g>
    <g fill="url(#linearGradient15)" text-rendering="geometricPrecision" shape-rendering="geometricPrecision" transform="matrix(1.5,0,0,1.5,-45,-97.5)" stroke="url(#linearGradient15)">
      <rect x="40" width="400" height="30" y="596.7442" clip-path="url(#clipPath2)" stroke="none"/>
    </g>
    <g font-size="13" stroke-linecap="butt" transform="matrix(1.5,0,0,1.5,-45,-97.5)" fill="white" text-rendering="geometricPrecision" font-family="sans-serif" shape-rendering="geometricPrecision" stroke="white" font-weight="bold" stroke-miterlimit="1.45">
      <text x="123.0984" xml:space="preserve" y="616.2447" clip-path="url(#clipPath2)" stroke="none">8. Realisierung der Maßnahmen</text>
    </g>
    <g stroke-linecap="butt" transform="matrix(1.5,0,0,1.5,-45,-97.5)" fill="gray" text-rendering="geometricPrecision" shape-rendering="geometricPrecision" stroke="gray" stroke-miterlimit="1.45">
      <rect fill="none" x="40" width="400" height="30" y="596.7442" clip-path="url(#clipPath2)"/>
    </g>
    <g fill="url(#linearGradient16)" text-rendering="geometricPrecision" shape-rendering="geometricPrecision" transform="matrix(1.5,0,0,1.5,-45,-97.5)" stroke="url(#linearGradient16)">
      <rect x="40" width="400" height="30" y="626.7442" clip-path="url(#clipPath2)" stroke="none"/>
    </g>
    <g text-rendering="geometricPrecision" stroke-miterlimit="1.45" shape-rendering="geometricPrecision" font-family="sans-serif" transform="matrix(1.5,0,0,1.5,-45,-97.5)" stroke-linecap="butt">
      <text x="71.3057" xml:space="preserve" y="645.8985" clip-path="url(#clipPath2)" stroke="none">Organisatorische und technische Maßnahmen einführen</text>
      <rect x="40" y="626.7442" clip-path="url(#clipPath2)" fill="none" width="400" height="30" stroke="gray"/>
      <path fill="none" d="M240.6429 135 L240.619 136.0031" clip-path="url(#clipPath2)"/>
      <path d="M240.3571 147 L246.6411 135.1462 L234.6445 134.8606 Z" clip-path="url(#clipPath2)" stroke="none"/>
      <path fill="none" d="M240 207 L240 208.0409" clip-path="url(#clipPath2)"/>
      <path d="M240 219.0409 L246 207.0409 L234 207.0409 Z" clip-path="url(#clipPath2)" stroke="none"/>
      <path fill="none" d="M240 295.0409 L240 295.9437" clip-path="url(#clipPath2)"/>
      <path d="M240 306.9437 L246 294.9437 L234 294.9437 Z" clip-path="url(#clipPath2)" stroke="none"/>
      <path fill="none" d="M240 366.9437 L240 367.8305" clip-path="url(#clipPath2)"/>
      <path d="M240 378.8305 L246 366.8305 L234 366.8305 Z" clip-path="url(#clipPath2)" stroke="none"/>
      <path fill="none" d="M240 438.8461 L240 439.9017" clip-path="url(#clipPath2)"/>
      <path d="M240 450.9017 L246 438.9017 L234 438.9017 Z" clip-path="url(#clipPath2)" stroke="none"/>
      <path fill="none" d="M76.2695 366.9437 L76.2695 439.8976" clip-path="url(#clipPath2)"/>
      <path d="M76.2695 450.8976 L82.2695 438.8976 L70.2695 438.8976 Z" clip-path="url(#clipPath2)" stroke="none"/>
      <path fill="none" d="M240 511.8466 L240 512.8132" clip-path="url(#clipPath2)"/>
      <path d="M240 523.8132 L246 511.8132 L234 511.8132 Z" clip-path="url(#clipPath2)" stroke="none"/>
      <path fill="none" d="M240 584.7581 L240 585.7452" clip-path="url(#clipPath2)"/>
      <path d="M240 596.7452 L246 584.7452 L234 584.7452 Z" clip-path="url(#clipPath2)" stroke="none"/>
    </g>
  </g>
</svg>
