<?xml version="1.0" encoding="UTF-8"?><svg xmlns="http://www.w3.org/2000/svg" xmlns:xlink="http://www.w3.org/1999/xlink" fill-opacity="1" color-rendering="auto" color-interpolation="auto" stroke="black" text-rendering="auto" stroke-linecap="square" width="1090" stroke-miterlimit="10" stroke-opacity="1" shape-rendering="auto" fill="black" stroke-dasharray="none" font-weight="normal" stroke-width="1" height="1951" font-family="'Dialog'" font-style="normal" stroke-linejoin="miter" font-size="12" stroke-dashoffset="0" image-rendering="auto">
  <!--Generated by ySVG 2.5-->
  <defs id="genericDefs"/>
  <g>
    <defs id="defs1">
      <linearGradient x1="145.625" gradientUnits="userSpaceOnUse" x2="223.625" y1="58.9621" y2="58.9621" id="linearGradient1" spreadMethod="reflect">
        <stop stop-opacity="1" stop-color="silver" offset="0%"/>
        <stop stop-opacity="1" stop-color="silver" offset="100%"/>
      </linearGradient>
      <linearGradient x1="570.5" gradientUnits="userSpaceOnUse" x2="648.5" y1="550.9651" y2="550.9651" id="linearGradient2" spreadMethod="reflect">
        <stop stop-opacity="1" stop-color="silver" offset="0%"/>
        <stop stop-opacity="1" stop-color="silver" offset="100%"/>
      </linearGradient>
      <linearGradient x1="394.25" gradientUnits="userSpaceOnUse" x2="472.25" y1="446.8371" y2="446.8371" id="linearGradient3" spreadMethod="reflect">
        <stop stop-opacity="1" stop-color="silver" offset="0%"/>
        <stop stop-opacity="1" stop-color="silver" offset="100%"/>
      </linearGradient>
      <linearGradient x1="105.75" gradientUnits="userSpaceOnUse" x2="121.75" y1="1045.4115" y2="1045.4115" id="linearGradient4" spreadMethod="reflect">
        <stop stop-opacity="1" stop-color="black" offset="0%"/>
        <stop stop-opacity="1" stop-color="black" offset="100%"/>
      </linearGradient>
      <linearGradient x1="90.25" gradientUnits="userSpaceOnUse" x2="168.25" y1="923.84" y2="923.84" id="linearGradient5" spreadMethod="reflect">
        <stop stop-opacity="1" stop-color="silver" offset="0%"/>
        <stop stop-opacity="1" stop-color="silver" offset="100%"/>
      </linearGradient>
      <linearGradient x1="208" gradientUnits="userSpaceOnUse" x2="286" y1="1027.2209" y2="1027.2209" id="linearGradient6" spreadMethod="reflect">
        <stop stop-opacity="1" stop-color="silver" offset="0%"/>
        <stop stop-opacity="1" stop-color="silver" offset="100%"/>
      </linearGradient>
      <linearGradient x1="523.5" gradientUnits="userSpaceOnUse" x2="539.5" y1="1218.983" y2="1218.983" id="linearGradient7" spreadMethod="reflect">
        <stop stop-opacity="1" stop-color="black" offset="0%"/>
        <stop stop-opacity="1" stop-color="black" offset="100%"/>
      </linearGradient>
      <linearGradient x1="508" gradientUnits="userSpaceOnUse" x2="586" y1="1130.6021" y2="1130.6021" id="linearGradient8" spreadMethod="reflect">
        <stop stop-opacity="1" stop-color="silver" offset="0%"/>
        <stop stop-opacity="1" stop-color="silver" offset="100%"/>
      </linearGradient>
      <linearGradient x1="541.25" gradientUnits="userSpaceOnUse" x2="619.25" y1="446.8371" y2="446.8371" id="linearGradient9" spreadMethod="reflect">
        <stop stop-opacity="1" stop-color="silver" offset="0%"/>
        <stop stop-opacity="1" stop-color="silver" offset="100%"/>
      </linearGradient>
      <linearGradient x1="237.25" gradientUnits="userSpaceOnUse" x2="315.25" y1="923.84" y2="923.84" id="linearGradient10" spreadMethod="reflect">
        <stop stop-opacity="1" stop-color="silver" offset="0%"/>
        <stop stop-opacity="1" stop-color="silver" offset="100%"/>
      </linearGradient>
      <linearGradient x1="409.75" gradientUnits="userSpaceOnUse" x2="425.75" y1="569.1556" y2="569.1556" id="linearGradient11" spreadMethod="reflect">
        <stop stop-opacity="1" stop-color="black" offset="0%"/>
        <stop stop-opacity="1" stop-color="black" offset="100%"/>
      </linearGradient>
      <clipPath clipPathUnits="userSpaceOnUse" id="clipPath1">
        <path d="M0 0 L1090 0 L1090 1951 L0 1951 L0 0 Z"/>
      </clipPath>
      <clipPath clipPathUnits="userSpaceOnUse" id="clipPath2">
        <path d="M-6 -54 L720.6667 -54 L720.6667 1246.6666 L-6 1246.6666 L-6 -54 Z"/>
      </clipPath>
    </defs>
    <g fill="white" text-rendering="geometricPrecision" shape-rendering="geometricPrecision" transform="scale(1.5,1.5) translate(6,54)" stroke="white">
      <rect x="-6" width="727" height="1301" y="-54" clip-path="url(#clipPath2)" stroke="none"/>
    </g>
    <g fill="gray" text-rendering="geometricPrecision" shape-rendering="geometricPrecision" transform="matrix(1.5,0,0,1.5,9,81)" stroke="gray">
      <path d="M-5 -52.0379 L-5 -22.0379 L719.75 -22.0379 L719.75 -52.0379 Z" clip-path="url(#clipPath2)" stroke="none"/>
      <rect x="-5" width="724.75" height="1268.0209" y="-22.0379" clip-path="url(#clipPath2)" stroke="none"/>
      <rect x="-5" y="-22.0379" clip-path="url(#clipPath2)" fill="rgb(229,229,229)" width="340.25" height="24" stroke="none"/>
      <rect x="-5" y="1.9621" clip-path="url(#clipPath2)" fill="rgb(229,229,229)" width="340.25" height="1244.0209" stroke="none"/>
      <rect x="335.25" y="-22.0379" clip-path="url(#clipPath2)" fill="rgb(216,216,216)" width="384.5" height="24" stroke="none"/>
      <rect x="335.25" y="1.9621" clip-path="url(#clipPath2)" fill="rgb(216,216,216)" width="384.5" height="1244.0209" stroke="none"/>
      <line clip-path="url(#clipPath2)" fill="rgb(113,146,178)" x1="-5" x2="-5" y1="1.9621" y2="1245.983" stroke="none"/>
    </g>
    <g text-rendering="geometricPrecision" stroke-miterlimit="1.45" shape-rendering="geometricPrecision" transform="matrix(1.5,0,0,1.5,9,81)" stroke-linecap="butt">
      <rect fill="none" x="-5" width="724.75" height="1298.0209" y="-52.0379" clip-path="url(#clipPath2)"/>
      <rect fill="none" x="-5" width="340.25" height="1268.0209" y="-22.0379" clip-path="url(#clipPath2)"/>
      <rect fill="none" x="335.25" width="384.5" height="1268.0209" y="-22.0379" clip-path="url(#clipPath2)"/>
      <rect fill="none" x="-5" width="724.75" height="1244.0209" y="1.9621" clip-path="url(#clipPath2)"/>
    </g>
    <g font-size="15" stroke-linecap="butt" transform="matrix(1.5,0,0,1.5,9,81)" fill="white" text-rendering="geometricPrecision" font-family="sans-serif" shape-rendering="geometricPrecision" stroke="white" stroke-miterlimit="1.45">
      <text x="272.2749" xml:space="preserve" y="-32.1145" clip-path="url(#clipPath2)" stroke="none">M2M-Authentifizierung</text>
      <text font-size="12" x="138.6143" y="-5.8992" clip-path="url(#clipPath2)" fill="black" stroke="none" xml:space="preserve">Mediator</text>
      <text font-size="12" x="487.1318" y="-5.8992" clip-path="url(#clipPath2)" fill="black" stroke="none" xml:space="preserve">Marktrechner</text>
    </g>
    <g fill="url(#linearGradient1)" text-rendering="geometricPrecision" shape-rendering="geometricPrecision" transform="matrix(1.5,0,0,1.5,9,81)" stroke="url(#linearGradient1)">
      <rect x="106.625" width="117" height="58.381" y="58.9621" clip-path="url(#clipPath2)" stroke="none"/>
    </g>
    <g text-rendering="geometricPrecision" stroke-miterlimit="1.45" shape-rendering="geometricPrecision" font-family="sans-serif" transform="matrix(1.5,0,0,1.5,9,81)" stroke-linecap="butt">
      <text x="135.5322" xml:space="preserve" y="78.3382" clip-path="url(#clipPath2)" stroke="none">Zertifikat/</text>
      <text x="134.1787" xml:space="preserve" y="92.3069" clip-path="url(#clipPath2)" stroke="none">Public Key</text>
      <text x="143.2021" xml:space="preserve" y="106.2757" clip-path="url(#clipPath2)" stroke="none">senden</text>
      <rect fill="none" x="106.625" width="117" height="58.381" y="58.9621" clip-path="url(#clipPath2)"/>
    </g>
    <g fill="url(#linearGradient2)" text-rendering="geometricPrecision" shape-rendering="geometricPrecision" transform="matrix(1.5,0,0,1.5,9,81)" stroke="url(#linearGradient2)">
      <rect x="531.5" width="117" height="58.381" y="550.9651" clip-path="url(#clipPath2)" stroke="none"/>
    </g>
    <g text-rendering="geometricPrecision" stroke-miterlimit="1.45" shape-rendering="geometricPrecision" font-family="sans-serif" transform="matrix(1.5,0,0,1.5,9,81)" stroke-linecap="butt">
      <text x="560.4072" xml:space="preserve" y="570.3411" clip-path="url(#clipPath2)" stroke="none">Zertifikat/</text>
      <text x="559.0537" xml:space="preserve" y="584.3099" clip-path="url(#clipPath2)" stroke="none">Public Key</text>
      <text x="568.0771" xml:space="preserve" y="598.2786" clip-path="url(#clipPath2)" stroke="none">senden</text>
      <rect fill="none" x="531.5" width="117" height="58.381" y="550.9651" clip-path="url(#clipPath2)"/>
    </g>
    <g fill="silver" text-rendering="geometricPrecision" shape-rendering="geometricPrecision" transform="matrix(1.5,0,0,1.5,9,81)" stroke="silver">
      <path d="M488.2499 207.0299 L553.7499 162.3432 L619.2501 207.0299 L553.7499 251.7166 Z" clip-path="url(#clipPath2)" fill-rule="evenodd" stroke="none"/>
    </g>
    <g text-rendering="geometricPrecision" stroke-miterlimit="1.45" shape-rendering="geometricPrecision" font-family="sans-serif" transform="matrix(1.5,0,0,1.5,9,81)" stroke-linecap="butt">
      <text x="504.0537" xml:space="preserve" y="211.1842" clip-path="url(#clipPath2)" stroke="none">Entit채t bekannt?</text>
      <path fill="none" d="M488.2499 207.0299 L553.7499 162.3432 L619.2501 207.0299 L553.7499 251.7166 Z" fill-rule="evenodd" clip-path="url(#clipPath2)"/>
    </g>
    <g fill="silver" text-rendering="geometricPrecision" shape-rendering="geometricPrecision" transform="matrix(1.5,0,0,1.5,9,81)" stroke="silver">
      <path d="M568.75 341.4033 L634.2501 296.7166 L699.7501 341.4033 L634.2501 386.09 Z" clip-path="url(#clipPath2)" fill-rule="evenodd" stroke="none"/>
    </g>
    <g text-rendering="geometricPrecision" stroke-miterlimit="1.45" shape-rendering="geometricPrecision" font-family="sans-serif" transform="matrix(1.5,0,0,1.5,9,81)" stroke-linecap="butt">
      <text x="604.6572" xml:space="preserve" y="331.5889" clip-path="url(#clipPath2)" stroke="none">Zertifikat/</text>
      <text x="603.3037" xml:space="preserve" y="345.5576" clip-path="url(#clipPath2)" stroke="none">Public Key</text>
      <text x="609.4678" xml:space="preserve" y="359.5264" clip-path="url(#clipPath2)" stroke="none">korrekt?</text>
      <path fill="none" d="M568.75 341.4033 L634.2501 296.7166 L699.7501 341.4033 L634.2501 386.09 Z" fill-rule="evenodd" clip-path="url(#clipPath2)"/>
    </g>
    <g fill="silver" text-rendering="geometricPrecision" shape-rendering="geometricPrecision" transform="matrix(1.5,0,0,1.5,9,81)" stroke="silver">
      <path d="M407.7499 341.4033 L473.2499 296.7166 L538.75 341.4033 L473.2499 386.09 Z" clip-path="url(#clipPath2)" fill-rule="evenodd" stroke="none"/>
    </g>
    <g text-rendering="geometricPrecision" stroke-miterlimit="1.45" shape-rendering="geometricPrecision" font-family="sans-serif" transform="matrix(1.5,0,0,1.5,9,81)" stroke-linecap="butt">
      <text x="438.3574" xml:space="preserve" y="338.5733" clip-path="url(#clipPath2)" stroke="none">Fingerprint </text>
      <text x="437.792" xml:space="preserve" y="352.542" clip-path="url(#clipPath2)" stroke="none">vorhanden?</text>
      <path fill="none" d="M407.7499 341.4033 L473.2499 296.7166 L538.75 341.4033 L473.2499 386.09 Z" fill-rule="evenodd" clip-path="url(#clipPath2)"/>
    </g>
    <g fill="silver" text-rendering="geometricPrecision" shape-rendering="geometricPrecision" transform="matrix(1.5,0,0,1.5,9,81)" stroke="silver">
      <path d="M95.5 699.0328 L161 654.3461 L226.5 699.0328 L161 743.7195 Z" clip-path="url(#clipPath2)" fill-rule="evenodd" stroke="none"/>
    </g>
    <g text-rendering="geometricPrecision" stroke-miterlimit="1.45" shape-rendering="geometricPrecision" font-family="sans-serif" transform="matrix(1.5,0,0,1.5,9,81)" stroke-linecap="butt">
      <text x="111.3037" xml:space="preserve" y="703.1871" clip-path="url(#clipPath2)" stroke="none">Entit채t bekannt?</text>
      <path fill="none" d="M95.5 699.0328 L161 654.3461 L226.5 699.0328 L161 743.7195 Z" fill-rule="evenodd" clip-path="url(#clipPath2)"/>
    </g>
    <g fill="silver" text-rendering="geometricPrecision" shape-rendering="geometricPrecision" transform="matrix(1.5,0,0,1.5,9,81)" stroke="silver">
      <path d="M15 833.4063 L80.5 788.7195 L146 833.4063 L80.5 878.093 Z" clip-path="url(#clipPath2)" fill-rule="evenodd" stroke="none"/>
    </g>
    <g text-rendering="geometricPrecision" stroke-miterlimit="1.45" shape-rendering="geometricPrecision" font-family="sans-serif" transform="matrix(1.5,0,0,1.5,9,81)" stroke-linecap="butt">
      <text x="50.9072" xml:space="preserve" y="823.5918" clip-path="url(#clipPath2)" stroke="none">Zertifikat/</text>
      <text x="49.5537" xml:space="preserve" y="837.5605" clip-path="url(#clipPath2)" stroke="none">Public Key</text>
      <text x="55.7178" xml:space="preserve" y="851.5293" clip-path="url(#clipPath2)" stroke="none">korrekt?</text>
      <path fill="none" d="M15 833.4063 L80.5 788.7195 L146 833.4063 L80.5 878.093 Z" fill-rule="evenodd" clip-path="url(#clipPath2)"/>
    </g>
    <g fill="silver" text-rendering="geometricPrecision" shape-rendering="geometricPrecision" transform="matrix(1.5,0,0,1.5,9,81)" stroke="silver">
      <path d="M176 833.4063 L241.5 788.7195 L307 833.4063 L241.5 878.093 Z" clip-path="url(#clipPath2)" fill-rule="evenodd" stroke="none"/>
    </g>
    <g text-rendering="geometricPrecision" stroke-miterlimit="1.45" shape-rendering="geometricPrecision" font-family="sans-serif" transform="matrix(1.5,0,0,1.5,9,81)" stroke-linecap="butt">
      <text x="206.6074" xml:space="preserve" y="830.5762" clip-path="url(#clipPath2)" stroke="none">Fingerprint </text>
      <text x="206.042" xml:space="preserve" y="844.5449" clip-path="url(#clipPath2)" stroke="none">vorhanden?</text>
      <path fill="none" d="M176 833.4063 L241.5 788.7195 L307 833.4063 L241.5 878.093 Z" fill-rule="evenodd" clip-path="url(#clipPath2)"/>
      <ellipse stroke-linecap="square" clip-path="url(#clipPath2)" rx="12" cx="165.125" ry="11" cy="17.9621" stroke="none" stroke-miterlimit="10"/>
      <ellipse rx="12" fill="none" ry="11" clip-path="url(#clipPath2)" cx="165.125" cy="17.9621"/>
    </g>
    <g fill="url(#linearGradient3)" text-rendering="geometricPrecision" shape-rendering="geometricPrecision" transform="matrix(1.5,0,0,1.5,9,81)" stroke="url(#linearGradient3)">
      <rect x="355.25" width="117" height="58.381" y="446.8371" clip-path="url(#clipPath2)" stroke="none"/>
    </g>
    <g text-rendering="geometricPrecision" stroke-miterlimit="1.45" shape-rendering="geometricPrecision" font-family="sans-serif" transform="matrix(1.5,0,0,1.5,9,81)" stroke-linecap="butt">
      <text x="378.9863" xml:space="preserve" y="473.1975" clip-path="url(#clipPath2)" stroke="none">Verbindung</text>
      <text x="385.8066" xml:space="preserve" y="487.1662" clip-path="url(#clipPath2)" stroke="none">ablehnen</text>
      <rect fill="none" x="355.25" width="117" height="58.381" y="446.8371" clip-path="url(#clipPath2)"/>
    </g>
    <g fill="url(#linearGradient4)" text-rendering="geometricPrecision" shape-rendering="geometricPrecision" transform="matrix(1.5,0,0,1.5,9,81)" stroke="url(#linearGradient4)">
      <ellipse rx="12" ry="11" clip-path="url(#clipPath2)" cx="109.75" cy="1056.4115" stroke="none"/>
    </g>
    <g text-rendering="geometricPrecision" stroke-miterlimit="1.45" shape-rendering="geometricPrecision" font-family="sans-serif" transform="matrix(1.5,0,0,1.5,9,81)" stroke-linecap="butt">
      <text x="98.3477" xml:space="preserve" y="1060.5658" clip-path="url(#clipPath2)" stroke="none">End</text>
    </g>
    <g stroke-linecap="butt" transform="matrix(1.5,0,0,1.5,9,81)" fill="white" text-rendering="geometricPrecision" shape-rendering="geometricPrecision" stroke="white" stroke-width="3" stroke-miterlimit="1.45">
      <ellipse rx="12" fill="none" ry="11" clip-path="url(#clipPath2)" cx="109.75" cy="1056.4115"/>
    </g>
    <g fill="url(#linearGradient5)" text-rendering="geometricPrecision" shape-rendering="geometricPrecision" transform="matrix(1.5,0,0,1.5,9,81)" stroke="url(#linearGradient5)">
      <rect x="51.25" width="117" height="58.381" y="923.84" clip-path="url(#clipPath2)" stroke="none"/>
    </g>
    <g text-rendering="geometricPrecision" stroke-miterlimit="1.45" shape-rendering="geometricPrecision" font-family="sans-serif" transform="matrix(1.5,0,0,1.5,9,81)" stroke-linecap="butt">
      <text x="74.9863" xml:space="preserve" y="950.2004" clip-path="url(#clipPath2)" stroke="none">Verbindung</text>
      <text x="81.8066" xml:space="preserve" y="964.1692" clip-path="url(#clipPath2)" stroke="none">ablehnen</text>
      <rect fill="none" x="51.25" width="117" height="58.381" y="923.84" clip-path="url(#clipPath2)"/>
    </g>
    <g fill="url(#linearGradient6)" text-rendering="geometricPrecision" shape-rendering="geometricPrecision" transform="matrix(1.5,0,0,1.5,9,81)" stroke="url(#linearGradient6)">
      <rect x="169" width="117" height="58.381" y="1027.221" clip-path="url(#clipPath2)" stroke="none"/>
    </g>
    <g text-rendering="geometricPrecision" stroke-miterlimit="1.45" shape-rendering="geometricPrecision" font-family="sans-serif" transform="matrix(1.5,0,0,1.5,9,81)" stroke-linecap="butt">
      <text x="192.7363" xml:space="preserve" y="1053.5814" clip-path="url(#clipPath2)" stroke="none">Verbindung</text>
      <text x="192.0273" xml:space="preserve" y="1067.5502" clip-path="url(#clipPath2)" stroke="none">akzeptieren</text>
      <rect fill="none" x="169" width="117" height="58.381" y="1027.221" clip-path="url(#clipPath2)"/>
    </g>
    <g fill="url(#linearGradient7)" text-rendering="geometricPrecision" shape-rendering="geometricPrecision" transform="matrix(1.5,0,0,1.5,9,81)" stroke="url(#linearGradient7)">
      <ellipse rx="12" ry="11" clip-path="url(#clipPath2)" cx="527.5" cy="1229.983" stroke="none"/>
    </g>
    <g text-rendering="geometricPrecision" stroke-miterlimit="1.45" shape-rendering="geometricPrecision" font-family="sans-serif" transform="matrix(1.5,0,0,1.5,9,81)" stroke-linecap="butt">
      <text x="516.0977" xml:space="preserve" y="1234.1373" clip-path="url(#clipPath2)" stroke="none">End</text>
    </g>
    <g stroke-linecap="butt" transform="matrix(1.5,0,0,1.5,9,81)" fill="white" text-rendering="geometricPrecision" shape-rendering="geometricPrecision" stroke="white" stroke-width="3" stroke-miterlimit="1.45">
      <ellipse rx="12" fill="none" ry="11" clip-path="url(#clipPath2)" cx="527.5" cy="1229.983"/>
    </g>
    <g fill="url(#linearGradient8)" text-rendering="geometricPrecision" shape-rendering="geometricPrecision" transform="matrix(1.5,0,0,1.5,9,81)" stroke="url(#linearGradient8)">
      <rect x="469" width="117" height="58.381" y="1130.602" clip-path="url(#clipPath2)" stroke="none"/>
    </g>
    <g text-rendering="geometricPrecision" stroke-miterlimit="1.45" shape-rendering="geometricPrecision" font-family="sans-serif" transform="matrix(1.5,0,0,1.5,9,81)" stroke-linecap="butt">
      <text x="492.7363" xml:space="preserve" y="1156.9624" clip-path="url(#clipPath2)" stroke="none">Verbindung</text>
      <text x="492.0273" xml:space="preserve" y="1170.9312" clip-path="url(#clipPath2)" stroke="none">akzeptieren</text>
      <rect fill="none" x="469" width="117" height="58.381" y="1130.602" clip-path="url(#clipPath2)"/>
    </g>
    <g fill="url(#linearGradient9)" text-rendering="geometricPrecision" shape-rendering="geometricPrecision" transform="matrix(1.5,0,0,1.5,9,81)" stroke="url(#linearGradient9)">
      <rect x="502.25" width="117" height="58.381" y="446.8371" clip-path="url(#clipPath2)" stroke="none"/>
    </g>
    <g text-rendering="geometricPrecision" stroke-miterlimit="1.45" shape-rendering="geometricPrecision" font-family="sans-serif" transform="matrix(1.5,0,0,1.5,9,81)" stroke-linecap="butt">
      <text x="521.5977" xml:space="preserve" y="459.2287" clip-path="url(#clipPath2)" stroke="none">Identit채t mit </text>
      <text x="531.1572" xml:space="preserve" y="473.1975" clip-path="url(#clipPath2)" stroke="none">Zertifikat/</text>
      <text x="529.8037" xml:space="preserve" y="487.1662" clip-path="url(#clipPath2)" stroke="none">Public Key</text>
      <text x="531.3945" xml:space="preserve" y="501.135" clip-path="url(#clipPath2)" stroke="none">speichern</text>
      <rect fill="none" x="502.25" width="117" height="58.381" y="446.8371" clip-path="url(#clipPath2)"/>
    </g>
    <g fill="url(#linearGradient10)" text-rendering="geometricPrecision" shape-rendering="geometricPrecision" transform="matrix(1.5,0,0,1.5,9,81)" stroke="url(#linearGradient10)">
      <rect x="198.25" width="117" height="58.381" y="923.84" clip-path="url(#clipPath2)" stroke="none"/>
    </g>
    <g text-rendering="geometricPrecision" stroke-miterlimit="1.45" shape-rendering="geometricPrecision" font-family="sans-serif" transform="matrix(1.5,0,0,1.5,9,81)" stroke-linecap="butt">
      <text x="217.5977" xml:space="preserve" y="936.2317" clip-path="url(#clipPath2)" stroke="none">Identit채t mit </text>
      <text x="227.1572" xml:space="preserve" y="950.2004" clip-path="url(#clipPath2)" stroke="none">Zertifikat/</text>
      <text x="225.8037" xml:space="preserve" y="964.1692" clip-path="url(#clipPath2)" stroke="none">Public Key</text>
      <text x="227.3945" xml:space="preserve" y="978.1379" clip-path="url(#clipPath2)" stroke="none">speichern</text>
      <rect fill="none" x="198.25" width="117" height="58.381" y="923.84" clip-path="url(#clipPath2)"/>
    </g>
    <g fill="url(#linearGradient11)" text-rendering="geometricPrecision" shape-rendering="geometricPrecision" transform="matrix(1.5,0,0,1.5,9,81)" stroke="url(#linearGradient11)">
      <ellipse rx="12" ry="11" clip-path="url(#clipPath2)" cx="413.75" cy="580.1556" stroke="none"/>
    </g>
    <g text-rendering="geometricPrecision" stroke-miterlimit="1.45" shape-rendering="geometricPrecision" font-family="sans-serif" transform="matrix(1.5,0,0,1.5,9,81)" stroke-linecap="butt">
      <text x="402.3477" xml:space="preserve" y="584.3099" clip-path="url(#clipPath2)" stroke="none">End</text>
    </g>
    <g stroke-linecap="butt" transform="matrix(1.5,0,0,1.5,9,81)" fill="white" text-rendering="geometricPrecision" shape-rendering="geometricPrecision" stroke="white" stroke-width="3" stroke-miterlimit="1.45">
      <ellipse rx="12" fill="none" ry="11" clip-path="url(#clipPath2)" cx="413.75" cy="580.1556"/>
      <ellipse clip-path="url(#clipPath2)" fill="none" rx="12" cx="413.75" ry="11" cy="580.1556" stroke="black" stroke-width="1"/>
      <ellipse clip-path="url(#clipPath2)" fill="none" rx="12" cx="109.75" ry="11" cy="1056.4115" stroke="black" stroke-width="1"/>
      <ellipse clip-path="url(#clipPath2)" fill="none" rx="12" cx="527.5" ry="11" cy="1229.983" stroke="black" stroke-width="1"/>
      <path fill="none" stroke-width="1" d="M165.125 117.3431 L165.125 132.3431 L553.75 132.3431 L553.75 151.3431" clip-path="url(#clipPath2)" stroke="black"/>
      <path fill="black" stroke-width="1" d="M553.75 162.3431 L559.75 150.3431 L547.75 150.3431 Z" clip-path="url(#clipPath2)" stroke="none"/>
      <path fill="none" stroke-width="1" d="M553.75 251.7166 L553.75 281.7166 L634.25 281.7166 L634.25 285.7166" clip-path="url(#clipPath2)" stroke="black"/>
      <path fill="black" stroke-width="1" d="M634.25 296.7166 L640.25 284.7166 L628.25 284.7166 Z" clip-path="url(#clipPath2)" stroke="none"/>
    </g>
    <g text-rendering="geometricPrecision" stroke-miterlimit="1.45" shape-rendering="geometricPrecision" font-family="sans-serif" transform="matrix(1.5,0,0,1.5,9,81)" stroke-linecap="butt">
      <text x="588.5537" xml:space="preserve" y="274.8865" clip-path="url(#clipPath2)" stroke="none">Ja</text>
      <path fill="none" d="M634.25 386.0901 L634.25 539.9248" clip-path="url(#clipPath2)"/>
      <path d="M634.25 550.9248 L640.25 538.9248 L628.25 538.9248 Z" clip-path="url(#clipPath2)" stroke="none"/>
      <text x="638.25" xml:space="preserve" y="472.6819" clip-path="url(#clipPath2)" stroke="none">Ja</text>
      <path fill="none" d="M553.75 251.7166 L553.75 281.7166 L473.25 281.7166 L473.25 285.7166" clip-path="url(#clipPath2)"/>
      <path d="M473.25 296.7166 L479.25 284.7166 L467.25 284.7166 Z" clip-path="url(#clipPath2)" stroke="none"/>
      <text x="499.8506" xml:space="preserve" y="274.8865" clip-path="url(#clipPath2)" stroke="none">Nein</text>
      <path fill="none" d="M590 609.3461 L590 624.3461 L161 624.3461 L161 643.3461" clip-path="url(#clipPath2)"/>
      <path d="M161 654.3461 L167 642.3461 L155 642.3461 Z" clip-path="url(#clipPath2)" stroke="none"/>
      <path fill="none" d="M161 743.7195 L161 773.7195 L80.5 773.7195 L80.5 777.7195" clip-path="url(#clipPath2)"/>
      <path d="M80.5 788.7195 L86.5 776.7195 L74.5 776.7195 Z" clip-path="url(#clipPath2)" stroke="none"/>
      <text x="115.3037" xml:space="preserve" y="766.8895" clip-path="url(#clipPath2)" stroke="none">Ja</text>
      <path fill="none" d="M161 743.7195 L161 773.7195 L241.5 773.7195 L241.5 777.7195" clip-path="url(#clipPath2)"/>
      <path d="M241.5 788.7195 L247.5 776.7195 L235.5 776.7195 Z" clip-path="url(#clipPath2)" stroke="none"/>
      <text x="187.6006" xml:space="preserve" y="766.8895" clip-path="url(#clipPath2)" stroke="none">Nein</text>
      <path fill="none" d="M165.125 28.9621 L165.125 47.9328" clip-path="url(#clipPath2)"/>
      <path d="M165.125 58.9328 L171.125 46.9328 L159.125 46.9328 Z" clip-path="url(#clipPath2)" stroke="none"/>
      <path fill="none" d="M473.25 386.0901 L473.25 416.0901 L384.5 416.0901 L384.5 435.807" clip-path="url(#clipPath2)"/>
      <path d="M384.5 446.807 L390.5 434.807 L378.5 434.807 Z" clip-path="url(#clipPath2)" stroke="none"/>
      <text x="415.2256" xml:space="preserve" y="409.26" clip-path="url(#clipPath2)" stroke="none">Nein</text>
      <path fill="none" d="M634.25 386.0901 L634.25 431.0901 L443 431.0901 L443 435.8063" clip-path="url(#clipPath2)"/>
      <path d="M443 446.8063 L449 434.8063 L437 434.8063 Z" clip-path="url(#clipPath2)" stroke="none"/>
      <text x="577.626" xml:space="preserve" y="424.26" clip-path="url(#clipPath2)" stroke="none">Nein</text>
      <path fill="none" d="M241.5 878.1223 L241.5 908.093 L139 908.093 L139 912.8093" clip-path="url(#clipPath2)"/>
      <path d="M139 923.8093 L145 911.8093 L133 911.8093 Z" clip-path="url(#clipPath2)" stroke="none"/>
      <text x="176.6006" xml:space="preserve" y="901.2629" clip-path="url(#clipPath2)" stroke="none">Nein</text>
      <path fill="none" d="M80.5 878.1377 L80.5 912.7953" clip-path="url(#clipPath2)"/>
      <path d="M80.5 923.7953 L86.5 911.7953 L74.5 911.7953 Z" clip-path="url(#clipPath2)" stroke="none"/>
      <text x="84.5" xml:space="preserve" y="905.1208" clip-path="url(#clipPath2)" stroke="none">Nein</text>
      <path fill="none" d="M109.75 982.221 L109.75 1034.4115" clip-path="url(#clipPath2)"/>
      <path d="M109.75 1045.4115 L115.75 1033.4115 L103.75 1033.4115 Z" clip-path="url(#clipPath2)" stroke="none"/>
      <path fill="none" d="M80.5 878.123 L80.5 908.84 L36.25 908.84 L36.25 997.221 L198.25 997.221 L198.25 1016.1917" clip-path="url(#clipPath2)"/>
      <path d="M198.25 1027.1917 L204.25 1015.1917 L192.25 1015.1917 Z" clip-path="url(#clipPath2)" stroke="none"/>
      <text x="53.7607" xml:space="preserve" y="1012.3597" clip-path="url(#clipPath2)" stroke="none">Ja</text>
      <path fill="none" d="M227.5 1085.6021 L227.5 1100.6021 L527.5 1100.6021 L527.5 1119.5728" clip-path="url(#clipPath2)"/>
      <path d="M527.5 1130.5728 L533.5 1118.5728 L521.5 1118.5728 Z" clip-path="url(#clipPath2)" stroke="none"/>
      <path fill="none" d="M527.5 1188.983 L527.5 1207.983" clip-path="url(#clipPath2)"/>
      <path d="M527.5 1218.983 L533.5 1206.983 L521.5 1206.983 Z" clip-path="url(#clipPath2)" stroke="none"/>
      <path fill="none" d="M473.25 386.0901 L473.25 416.0901 L560.75 416.0901 L560.75 435.807" clip-path="url(#clipPath2)"/>
      <path d="M560.75 446.807 L566.75 434.807 L554.75 434.807 Z" clip-path="url(#clipPath2)" stroke="none"/>
      <text x="511.5537" xml:space="preserve" y="409.26" clip-path="url(#clipPath2)" stroke="none">Ja</text>
      <path fill="none" d="M560.75 505.2181 L560.75 539.9204" clip-path="url(#clipPath2)"/>
      <path d="M560.75 550.9204 L566.75 538.9204 L554.75 538.9204 Z" clip-path="url(#clipPath2)" stroke="none"/>
      <path fill="none" d="M241.5 878.1223 L241.5 908.093 L256.75 908.093 L256.75 912.8093" clip-path="url(#clipPath2)"/>
      <path d="M256.75 923.8093 L262.75 911.8093 L250.75 911.8093 Z" clip-path="url(#clipPath2)" stroke="none"/>
      <text x="243.6787" xml:space="preserve" y="901.2629" clip-path="url(#clipPath2)" stroke="none">Ja</text>
      <path fill="none" d="M256.75 982.221 L256.75 1016.1771" clip-path="url(#clipPath2)"/>
      <path d="M256.75 1027.177 L262.75 1015.177 L250.75 1015.177 Z" clip-path="url(#clipPath2)" stroke="none"/>
      <path fill="none" d="M413.75 505.2181 L413.75 558.1556" clip-path="url(#clipPath2)"/>
      <path d="M413.75 569.1556 L419.75 557.1556 L407.75 557.1556 Z" clip-path="url(#clipPath2)" stroke="none"/>
    </g>
  </g>
</svg>
