<?xml version="1.0" encoding="UTF-8" standalone="no"?>
<!DOCTYPE svg PUBLIC "-//W3C//DTD SVG 1.0//EN" "http://www.w3.org/TR/2001/PR-SVG-20010719/DTD/svg10.dtd">
<svg width="42cm" height="9cm" viewBox="-146 142 827 178" xmlns="http://www.w3.org/2000/svg" xmlns:xlink="http://www.w3.org/1999/xlink">
  <g>
    <rect style="fill: #ffffff" x="-144.902" y="205.586" width="103.875" height="45"/>
    <rect style="fill: none; fill-opacity:0; stroke-width: 2; stroke: #000000" x="-144.902" y="205.586" width="103.875" height="45"/>
    <text font-size="12.8" style="fill: #000000;text-anchor:middle;font-family:sans-serif;font-style:normal;font-weight:normal" x="-92.9647" y="231.986">
      <tspan x="-92.9647" y="231.986">Benutzer</tspan>
    </text>
  </g>
  <g>
    <ellipse style="fill: #ffffff" cx="267" cy="229.004" rx="58.9659" ry="29.483"/>
    <ellipse style="fill: none; fill-opacity:0; stroke-width: 2; stroke: #000000" cx="267" cy="229.004" rx="58.9659" ry="29.483"/>
    <text font-size="12.8" style="fill: #000000;text-anchor:middle;font-family:sans-serif;font-style:normal;font-weight:normal" x="267" y="232.904">
      <tspan x="267" y="232.904">RestGateway</tspan>
    </text>
  </g>
  <g>
    <ellipse style="fill: #ffffff" cx="450.249" cy="229.001" rx="56.9452" ry="28.4726"/>
    <ellipse style="fill: none; fill-opacity:0; stroke-width: 2; stroke: #000000" cx="450.249" cy="229.001" rx="56.9452" ry="28.4726"/>
    <text font-size="12.8" style="fill: #000000;text-anchor:middle;font-family:sans-serif;font-style:normal;font-weight:normal" x="450.249" y="232.901">
      <tspan x="450.249" y="232.901">LanGateway</tspan>
    </text>
  </g>
  <path style="fill: none; fill-opacity:0; stroke-width: 3; stroke-dasharray: 10; stroke: #bfbfbf" d="M 555.5,143.8 A 177.522,177.522 0 0 0 555.5,316.8"/>
  <g>
    <rect style="fill: #ffffff" x="575.956" y="206.184" width="103.875" height="45"/>
    <rect style="fill: none; fill-opacity:0; stroke-width: 2; stroke: #000000" x="575.956" y="206.184" width="103.875" height="45"/>
    <text font-size="12.8" style="fill: #000000;text-anchor:middle;font-family:sans-serif;font-style:normal;font-weight:normal" x="627.894" y="232.584">
      <tspan x="627.894" y="232.584">E*LDS</tspan>
    </text>
  </g>
  <g>
    <path style="fill: none; fill-opacity:0; stroke-width: 2; stroke: #000000" d="M 509.725,248.163 A 43.3939,43.3939 0 0 0 575.956,239.934"/>
    <polygon style="fill: #000000" points="512.998,246.47 503.399,240.739 504.573,251.857 "/>
    <polygon style="fill: none; fill-opacity:0; stroke-width: 2; stroke: #000000" points="512.998,246.47 503.399,240.739 504.573,251.857 "/>
  </g>
  <g>
    <path style="fill: none; fill-opacity:0; stroke-width: 2; stroke: #000000" d="M 569.011,209.234 A 43.3967,43.3967 0 0 0 502.86,218.104"/>
    <polygon style="fill: #000000" points="565.755,210.958 575.409,216.597 574.127,205.49 "/>
    <polygon style="fill: none; fill-opacity:0; stroke-width: 2; stroke: #000000" points="565.755,210.958 575.409,216.597 574.127,205.49 "/>
  </g>
  <g>
    <path style="fill: none; fill-opacity:0; stroke-width: 2; stroke: #000000" d="M 328.627,248.348 A 46.2531,46.2531 0 0 0 397.638,239.896"/>
    <polygon style="fill: #000000" points="331.87,246.451 322.05,241.106 323.666,252.169 "/>
    <polygon style="fill: none; fill-opacity:0; stroke-width: 2; stroke: #000000" points="331.87,246.451 322.05,241.106 323.666,252.169 "/>
  </g>
  <g>
    <path style="fill: none; fill-opacity:0; stroke-width: 2; stroke: #000000" d="M 390.571,209.97 A 46.2531,46.2531 0 0 0 321.478,217.722"/>
    <polygon style="fill: #000000" points="387.309,211.834 397.075,217.278 395.571,206.199 "/>
    <polygon style="fill: none; fill-opacity:0; stroke-width: 2; stroke: #000000" points="387.309,211.834 397.075,217.278 395.571,206.199 "/>
  </g>
  <g>
    <path style="fill: none; fill-opacity:0; stroke-width: 2; stroke: #000000" d="M 20.7053,208.506 A 39.0227,39.0227 0 0 0 -41.0272,216.836"/>
    <polygon style="fill: #000000" points="17.412,209.859 26.632,216.183 26.1592,205.012 "/>
    <polygon style="fill: none; fill-opacity:0; stroke-width: 2; stroke: #000000" points="17.412,209.859 26.632,216.183 26.1592,205.012 "/>
  </g>
  <g>
    <path style="fill: none; fill-opacity:0; stroke-width: 2; stroke: #000000" d="M -34.7599,247.994 A 39.0342,39.0342 0 0 0 27.1167,240.709"/>
    <polygon style="fill: #000000" points="-31.4443,246.696 -40.5573,240.219 -40.2713,251.395 "/>
    <polygon style="fill: none; fill-opacity:0; stroke-width: 2; stroke: #000000" points="-31.4443,246.696 -40.5573,240.219 -40.2713,251.395 "/>
  </g>
  <text font-size="12.8" style="fill: #000000;text-anchor:start;font-family:sans-serif;font-style:normal;font-weight:normal" x="0.3426" y="187.403">
    <tspan x="0.3426" y="187.403">HTTP(s)</tspan>
  </text>
  <text font-size="12.8" style="fill: #000000;text-anchor:start;font-family:sans-serif;font-style:normal;font-weight:normal" x="-0.9412" y="281.098">
    <tspan x="-0.9412" y="281.098">HTTP(s)</tspan>
  </text>
  <text font-size="12.8" style="fill: #000000;text-anchor:start;font-family:sans-serif;font-style:normal;font-weight:normal" x="347.176" y="186.832">
    <tspan x="347.176" y="186.832">TCP</tspan>
  </text>
  <text font-size="12.8" style="fill: #000000;text-anchor:start;font-family:sans-serif;font-style:normal;font-weight:normal" x="346.212" y="280.182">
    <tspan x="346.212" y="280.182">TCP</tspan>
  </text>
  <text font-size="12.8" style="fill: #000000;text-anchor:start;font-family:sans-serif;font-style:normal;font-weight:normal" x="525.072" y="185.915">
    <tspan x="525.072" y="185.915">CAN</tspan>
  </text>
  <text font-size="12.8" style="fill: #000000;text-anchor:start;font-family:sans-serif;font-style:normal;font-weight:normal" x="526.54" y="278.714">
    <tspan x="526.54" y="278.714">CAN</tspan>
  </text>
  <path style="fill: none; fill-opacity:0; stroke-width: 3; stroke-dasharray: 10; stroke: #bfbfbf" d="M 374.1,145 A 177.522,177.522 0 0 0 374.1,318"/>
  <path style="fill: none; fill-opacity:0; stroke-width: 3; stroke-dasharray: 10; stroke: #bfbfbf" d="M 35.7,144.2 A 177.522,177.522 0 0 0 35.7,317.2"/>
  <g>
    <ellipse style="fill: #ffffff" cx="84.2159" cy="228.883" rx="61.8038" ry="30.9019"/>
    <ellipse style="fill: none; fill-opacity:0; stroke-width: 2; stroke: #000000" cx="84.2159" cy="228.883" rx="61.8038" ry="30.9019"/>
    <text font-size="12.8" style="fill: #000000;text-anchor:middle;font-family:sans-serif;font-style:normal;font-weight:normal" x="84.2159" y="232.783">
      <tspan x="84.2159" y="232.783">Reverse Proxy</tspan>
    </text>
  </g>
  <path style="fill: none; fill-opacity:0; stroke-width: 3; stroke-dasharray: 10; stroke: #bfbfbf" d="M 197.25,143.9 A 177.522,177.522 0 0 0 197.25,316.9"/>
  <text font-size="12.8" style="fill: #000000;text-anchor:start;font-family:sans-serif;font-style:normal;font-weight:normal" x="160.25" y="285.3">
    <tspan x="160.25" y="285.3">HTTP(s)</tspan>
  </text>
  <text font-size="12.8" style="fill: #000000;text-anchor:start;font-family:sans-serif;font-style:normal;font-weight:normal" x="160.25" y="191.3">
    <tspan x="160.25" y="191.3">HTTP(s)</tspan>
  </text>
  <g>
    <path style="fill: none; fill-opacity:0; stroke-width: 2; stroke: #000000" d="M 148.077,249.034 A 41.6916,41.6916 0 0 0 212.523,240.286"/>
    <polygon style="fill: #000000" points="151.348,247.442 141.841,241.56 142.84,252.695 "/>
    <polygon style="fill: none; fill-opacity:0; stroke-width: 2; stroke: #000000" points="151.348,247.442 141.841,241.56 142.84,252.695 "/>
  </g>
  <g>
    <path style="fill: none; fill-opacity:0; stroke-width: 2; stroke: #000000" d="M 205.889,209.294 A 41.6932,41.6932 0 0 0 141.315,217.057"/>
    <polygon style="fill: #000000" points="202.593,210.836 212.01,216.862 211.181,205.713 "/>
    <polygon style="fill: none; fill-opacity:0; stroke-width: 2; stroke: #000000" points="202.593,210.836 212.01,216.862 211.181,205.713 "/>
  </g>
</svg>
