<?xml version="1.0" encoding="UTF-8"?><svg xmlns="http://www.w3.org/2000/svg" xmlns:xlink="http://www.w3.org/1999/xlink" fill-opacity="1" color-rendering="auto" color-interpolation="auto" stroke="black" text-rendering="auto" stroke-linecap="square" width="415" stroke-miterlimit="10" stroke-opacity="1" shape-rendering="auto" fill="black" stroke-dasharray="none" font-weight="normal" stroke-width="1" height="213" font-family="'Dialog'" font-style="normal" stroke-linejoin="miter" font-size="12" stroke-dashoffset="0" image-rendering="auto">
  <!--Generated by ySVG 2.5-->
  <defs id="genericDefs"/>
  <g>
    <defs id="defs1">
      <linearGradient x1="173.3333" gradientUnits="userSpaceOnUse" x2="304" y1="0" y2="0" id="linearGradient1" spreadMethod="reflect">
        <stop stop-opacity="1" stop-color="silver" offset="0%"/>
        <stop stop-opacity="1" stop-color="silver" offset="100%"/>
      </linearGradient>
      <linearGradient x1="173.3333" gradientUnits="userSpaceOnUse" x2="304" y1="83.381" y2="83.381" id="linearGradient2" spreadMethod="reflect">
        <stop stop-opacity="1" stop-color="silver" offset="0%"/>
        <stop stop-opacity="1" stop-color="silver" offset="100%"/>
      </linearGradient>
      <linearGradient x1="65.3333" gradientUnits="userSpaceOnUse" x2="196" y1="166.762" y2="166.762" id="linearGradient3" spreadMethod="reflect">
        <stop stop-opacity="1" stop-color="silver" offset="0%"/>
        <stop stop-opacity="1" stop-color="silver" offset="100%"/>
      </linearGradient>
      <linearGradient x1="281.3333" gradientUnits="userSpaceOnUse" x2="412" y1="166.762" y2="166.762" id="linearGradient4" spreadMethod="reflect">
        <stop stop-opacity="1" stop-color="silver" offset="0%"/>
        <stop stop-opacity="1" stop-color="silver" offset="100%"/>
      </linearGradient>
      <clipPath clipPathUnits="userSpaceOnUse" id="clipPath1">
        <path d="M0 0 L415 0 L415 213 L0 213 L0 0 Z"/>
      </clipPath>
      <clipPath clipPathUnits="userSpaceOnUse" id="clipPath2">
        <path d="M-1 -1 L414 -1 L414 212 L-1 212 L-1 -1 Z"/>
      </clipPath>
    </defs>
    <g fill="white" text-rendering="geometricPrecision" shape-rendering="geometricPrecision" transform="translate(1,1)" stroke="white">
      <rect x="-1" width="415" height="213" y="-1" clip-path="url(#clipPath2)" stroke="none"/>
    </g>
    <g fill="url(#linearGradient1)" text-rendering="geometricPrecision" shape-rendering="geometricPrecision" transform="matrix(1,0,0,1,1,1)" stroke="url(#linearGradient1)">
      <rect x="108" width="196" height="43.381" y="0" clip-path="url(#clipPath2)" stroke="none"/>
    </g>
    <g text-rendering="geometricPrecision" stroke-miterlimit="1.45" shape-rendering="geometricPrecision" font-family="sans-serif" transform="matrix(1,0,0,1,1,1)" stroke-linecap="butt">
      <text x="124.6748" xml:space="preserve" y="25.8448" clip-path="url(#clipPath2)" stroke="none">dc=meinedomain,dc=local</text>
      <rect fill="none" x="108" width="196" height="43.381" y="0" clip-path="url(#clipPath2)"/>
    </g>
    <g fill="url(#linearGradient2)" text-rendering="geometricPrecision" shape-rendering="geometricPrecision" transform="matrix(1,0,0,1,1,1)" stroke="url(#linearGradient2)">
      <rect x="108" width="196" height="43.381" y="83.381" clip-path="url(#clipPath2)" stroke="none"/>
    </g>
    <g text-rendering="geometricPrecision" stroke-miterlimit="1.45" shape-rendering="geometricPrecision" font-family="sans-serif" transform="matrix(1,0,0,1,1,1)" stroke-linecap="butt">
      <text x="174.9512" xml:space="preserve" y="109.2258" clip-path="url(#clipPath2)" stroke="none">ou=radius</text>
      <rect fill="none" x="108" width="196" height="43.381" y="83.381" clip-path="url(#clipPath2)"/>
    </g>
    <g fill="url(#linearGradient3)" text-rendering="geometricPrecision" shape-rendering="geometricPrecision" transform="matrix(1,0,0,1,1,1)" stroke="url(#linearGradient3)">
      <rect x="0" width="196" height="43.381" y="166.762" clip-path="url(#clipPath2)" stroke="none"/>
    </g>
    <g text-rendering="geometricPrecision" stroke-miterlimit="1.45" shape-rendering="geometricPrecision" font-family="sans-serif" transform="matrix(1,0,0,1,1,1)" stroke-linecap="butt">
      <text x="69.2861" xml:space="preserve" y="192.6068" clip-path="url(#clipPath2)" stroke="none">ou=users</text>
      <rect fill="none" x="0" width="196" height="43.381" y="166.762" clip-path="url(#clipPath2)"/>
    </g>
    <g fill="url(#linearGradient4)" text-rendering="geometricPrecision" shape-rendering="geometricPrecision" transform="matrix(1,0,0,1,1,1)" stroke="url(#linearGradient4)">
      <rect x="216" width="196" height="43.381" y="166.762" clip-path="url(#clipPath2)" stroke="none"/>
    </g>
    <g text-rendering="geometricPrecision" stroke-miterlimit="1.45" shape-rendering="geometricPrecision" font-family="sans-serif" transform="matrix(1,0,0,1,1,1)" stroke-linecap="butt">
      <text x="279.5732" xml:space="preserve" y="192.6068" clip-path="url(#clipPath2)" stroke="none">ou=admins</text>
      <rect fill="none" x="216" width="196" height="43.381" y="166.762" clip-path="url(#clipPath2)"/>
      <path fill="none" d="M206 43.381 L206 72.381" clip-path="url(#clipPath2)"/>
      <path d="M206 83.381 L212 71.381 L200 71.381 Z" clip-path="url(#clipPath2)" stroke="none"/>
      <path fill="none" d="M177.9052 126.762 L134.8018 160.0398" clip-path="url(#clipPath2)"/>
      <path d="M126.0948 166.762 L139.26 164.178 L131.9267 154.6794 Z" clip-path="url(#clipPath2)" stroke="none"/>
      <path fill="none" d="M234.0948 126.762 L277.1982 160.0398" clip-path="url(#clipPath2)"/>
      <path d="M285.9052 166.762 L280.0733 154.6794 L272.74 164.178 Z" clip-path="url(#clipPath2)" stroke="none"/>
    </g>
  </g>
</svg>
